<svg width="401" height="34" viewBox="0 0 401 34" fill="none" xmlns="http://www.w3.org/2000/svg">
<path d="M12 5.59961C10.36 7.86961 9.14965 10.1204 8.38965 12.3604C7.62978 14.6201 7.25004 17.0299 7.25 19.5996C7.25 22.1694 7.62976 24.5697 8.38965 26.8096C9.15962 29.0695 10.3601 31.3397 12 33.5996H5.37988C1.79005 29.5797 0 24.9095 0 19.5996C8.91573e-05 14.2898 1.78997 9.61951 5.37988 5.59961H12ZM33.1201 5.75C41.82 5.75003 46.1698 9.17997 46.1699 16.0498V33.5996H39.2695V29.0996C37.7397 30.5695 36.0901 31.6496 34.3203 32.3496C32.5904 33.0196 30.5902 33.3496 28.3203 33.3496C24.8903 33.3496 22.2499 32.6698 20.4199 31.2998C18.59 29.8998 17.6699 27.9195 17.6699 25.3496C17.67 22.48 18.8699 20.3501 21.2695 18.9502C23.6695 17.5502 27.4501 16.7804 32.6201 16.6504L39.0195 16.5V15.5C39.0195 14.0301 38.4898 12.9204 37.4199 12.1504C36.3499 11.3504 34.8401 10.9502 32.8701 10.9502C29.1001 10.9502 26.8501 12.0204 26.1201 14.1504L19.3701 13.5C19.9001 10.87 21.3003 8.92039 23.5703 7.65039C25.8703 6.38042 29.0502 5.75 33.1201 5.75ZM58.7002 10.75C61.5002 7.42007 65.1 5.75 69.5 5.75C72.8998 5.75 75.4998 6.6198 77.2998 8.34961C79.1298 10.0496 80.0498 12.5002 80.0498 15.7002V33.5996H72.5996V17.1504C72.5996 15.2205 72.1301 13.8202 71.2002 12.9502C70.3002 12.0802 68.8496 11.6504 66.8496 11.6504C65.7799 11.6504 64.7201 11.8501 63.6504 12.25C62.6204 12.65 61.7202 13.2202 60.9502 13.9502C59.5502 15.2802 58.8496 16.7802 58.8496 18.4502V33.5996H51.4004V5.75H58.7002V10.75ZM116.75 5.59961C120.33 9.61951 122.13 14.2898 122.13 19.5996C122.13 24.9095 120.34 29.5797 116.75 33.5996H110.13C111.77 31.3397 112.97 29.0695 113.74 26.8096C114.5 24.5697 114.88 22.1694 114.88 19.5996C114.88 17.0299 114.5 14.6201 113.74 12.3604C112.98 10.1204 111.77 7.86961 110.13 5.59961H116.75ZM94.5996 5.59961H101.62V11.1504H94.5996V24C94.5996 25.3 94.9198 26.2704 95.5498 26.9004C96.1798 27.5003 97.18 27.7998 98.5498 27.7998C99.5598 27.7998 100.58 27.6802 101.62 27.4502V33.04C99.9901 33.37 98.3296 33.5498 96.5996 33.5498C93.2998 33.5497 90.9003 32.8196 89.4004 31.3496C87.9004 29.8496 87.1504 27.48 87.1504 24.25V11.1504H82.0996V5.59961H87.1504V0H94.5996V5.59961ZM261.879 15.9668C262.731 15.9668 263.462 16.0994 264.074 16.3633C264.698 16.6273 265.233 17.0415 265.677 17.6055V16.2549H267.801V24.0312C267.801 25.8669 267.381 27.2049 266.541 28.0449C265.713 28.8849 264.393 29.3046 262.581 29.3047C260.985 29.3047 259.767 29.0593 258.927 28.5674C258.087 28.0874 257.589 27.343 257.433 26.335H259.61C259.778 26.7909 260.096 27.1212 260.564 27.3252C261.032 27.5412 261.699 27.6494 262.562 27.6494C263.607 27.6494 264.381 27.4087 264.885 26.9287C265.389 26.4607 265.641 25.7227 265.641 24.7148V23.6172C264.777 24.793 263.451 25.3808 261.663 25.3809C260.751 25.3809 259.94 25.1952 259.232 24.8232C258.536 24.4512 257.984 23.9111 257.576 23.2031C257.18 22.4951 256.982 21.6667 256.982 20.7188C256.982 19.8309 257.18 19.0266 257.576 18.3066C257.984 17.5867 258.561 17.0167 259.305 16.5967C260.049 16.1768 260.907 15.9668 261.879 15.9668ZM333.656 15.9668C334.508 15.9668 335.241 16.0993 335.853 16.3633C336.476 16.6273 337.01 17.0415 337.454 17.6055V16.2549H339.578V24.0312C339.578 25.8671 339.158 27.205 338.318 28.0449C337.49 28.8849 336.17 29.3047 334.358 29.3047C332.762 29.3047 331.544 29.0594 330.704 28.5674C329.864 28.0874 329.366 27.3429 329.21 26.335H331.389C331.557 26.7909 331.875 27.1212 332.343 27.3252C332.811 27.5411 333.477 27.6494 334.341 27.6494C335.385 27.6494 336.158 27.4086 336.662 26.9287C337.166 26.4607 337.418 25.7228 337.418 24.7148V23.6172C336.554 24.793 335.228 25.3809 333.44 25.3809C332.529 25.3809 331.719 25.1951 331.011 24.8232C330.315 24.4513 329.762 23.9111 329.354 23.2031C328.958 22.4951 328.761 21.6668 328.761 20.7188C328.761 19.8309 328.959 19.0266 329.354 18.3066C329.762 17.5868 330.338 17.0166 331.082 16.5967C331.826 16.1767 332.684 15.9668 333.656 15.9668ZM32.7695 21.0498C30.0701 21.1198 28.0903 21.4698 26.8203 22.0996C25.5904 22.6995 24.9699 23.6198 24.9697 24.8496C24.9697 25.9196 25.4203 26.7298 26.3203 27.2998C27.2503 27.8697 28.5904 28.1504 30.3203 28.1504C31.7201 28.1504 33.0001 27.9803 34.1699 27.6504C35.3399 27.2804 36.3201 26.7696 37.1201 26.0996C38.3899 25.0996 39.0195 23.8297 39.0195 22.2998V20.9004L32.7695 21.0498ZM142.318 21.9795C142.318 22.7112 142.498 23.2573 142.858 23.6172C143.23 23.977 143.794 24.1572 144.55 24.1572C145.45 24.1572 146.248 23.8512 146.944 23.2393C147.508 22.7353 147.79 22.1168 147.79 21.3848V16.2549H149.95V25.6152H147.826V24.0674C146.782 25.2912 145.468 25.9033 143.884 25.9033C142.696 25.9032 141.778 25.5973 141.13 24.9854C140.482 24.3734 140.158 23.4972 140.158 22.3574V16.2549H142.318V21.9795ZM172.711 15.9668C174.115 15.9668 175.189 16.1768 175.933 16.5967C176.689 17.0046 177.199 17.6708 177.463 18.5947L175.411 18.8105C175.243 18.3907 174.943 18.0845 174.511 17.8926C174.091 17.7006 173.491 17.6055 172.711 17.6055C171.919 17.6055 171.313 17.7006 170.893 17.8926C170.473 18.0726 170.263 18.3431 170.263 18.7031C170.263 18.9791 170.329 19.189 170.461 19.333C170.593 19.465 170.815 19.5788 171.127 19.6748C171.439 19.7708 171.883 19.8613 172.459 19.9453L173.665 20.125C174.709 20.281 175.519 20.4788 176.095 20.7188C176.67 20.9467 177.078 21.2408 177.318 21.6006C177.57 21.9486 177.696 22.3992 177.696 22.9512C177.696 23.9231 177.294 24.6611 176.49 25.165C175.698 25.6569 174.523 25.9033 172.963 25.9033C171.403 25.9033 170.209 25.6449 169.381 25.1289C168.565 24.6129 168.067 23.8209 167.887 22.7529H169.993C170.149 23.2689 170.455 23.6467 170.911 23.8867C171.379 24.1146 172.051 24.2295 172.927 24.2295C174.679 24.2295 175.555 23.8386 175.555 23.0586C175.555 22.7108 175.392 22.4531 175.068 22.2852C174.744 22.1172 174.144 21.9669 173.269 21.835L172.062 21.6553C171.055 21.5113 170.269 21.319 169.705 21.0791C169.141 20.8392 168.739 20.533 168.499 20.1611C168.271 19.7892 168.156 19.3151 168.156 18.7393C168.156 17.8754 168.559 17.1971 169.362 16.7051C170.178 16.2131 171.295 15.9668 172.711 15.9668ZM184.027 15.9668C185.647 15.9668 186.902 16.3866 187.79 17.2266C188.69 18.0545 189.14 19.2189 189.14 20.7188V21.4746H180.859C180.883 22.3386 181.184 23.0289 181.76 23.5449C182.348 24.0489 183.116 24.3008 184.063 24.3008C184.807 24.3008 185.414 24.1814 185.882 23.9414C186.362 23.6894 186.692 23.3228 186.872 22.8428H189.014C188.75 23.8748 188.204 24.6435 187.376 25.1475C186.56 25.6514 185.45 25.9033 184.046 25.9033C182.402 25.9033 181.105 25.4714 180.157 24.6074C179.221 23.7315 178.754 22.5372 178.754 21.0254C178.754 20.0414 178.964 19.171 179.384 18.415C179.816 17.6471 180.428 17.0472 181.22 16.6152C182.024 16.1833 182.959 15.9668 184.027 15.9668ZM218.539 15.9668C219.835 15.9668 220.885 16.2495 221.689 16.8135C222.505 17.3655 223.021 18.1632 223.237 19.207L221.041 19.4951C220.705 18.2712 219.865 17.6592 218.521 17.6592C217.525 17.6592 216.751 17.9474 216.199 18.5234C215.647 19.0874 215.371 19.8851 215.371 20.917C215.371 21.985 215.642 22.8012 216.182 23.3652C216.734 23.929 217.526 24.2109 218.558 24.2109C220.057 24.2108 220.946 23.5868 221.222 22.3389H223.399C223.219 23.4789 222.704 24.3614 221.852 24.9854C221 25.5974 219.883 25.9033 218.503 25.9033C216.811 25.9033 215.491 25.4713 214.543 24.6074C213.607 23.7314 213.14 22.5131 213.14 20.9531C213.14 19.9571 213.35 19.0868 213.77 18.3428C214.202 17.5869 214.826 17.0046 215.642 16.5967C216.457 16.1768 217.423 15.9668 218.539 15.9668ZM229.682 15.9668C231.301 15.9668 232.555 16.3868 233.443 17.2266C234.343 18.0545 234.794 19.2189 234.794 20.7188V21.4746H226.514C226.538 22.3385 226.837 23.029 227.413 23.5449C228.001 24.0489 228.77 24.3008 229.718 24.3008C230.461 24.3008 231.067 24.1812 231.535 23.9414C232.015 23.6894 232.345 23.3228 232.525 22.8428H234.668C234.404 23.8748 233.857 24.6435 233.029 25.1475C232.213 25.6513 231.103 25.9033 229.699 25.9033C228.055 25.9033 226.759 25.4712 225.812 24.6074C224.876 23.7315 224.407 22.5372 224.407 21.0254C224.407 20.0415 224.617 19.171 225.037 18.415C225.469 17.647 226.082 17.0472 226.874 16.6152C227.678 16.1833 228.614 15.9668 229.682 15.9668ZM251.047 25.6152H248.923V24.0674C248.491 24.6431 247.927 25.0931 247.231 25.417C246.535 25.741 245.761 25.9033 244.909 25.9033C243.997 25.9033 243.187 25.7046 242.479 25.3086C241.783 24.9126 241.231 24.3426 240.823 23.5986C240.427 22.8547 240.229 21.9907 240.229 21.0068C240.23 20.0469 240.427 19.1886 240.823 18.4326C241.219 17.6648 241.789 17.0648 242.533 16.6328C243.277 16.1889 244.141 15.9668 245.125 15.9668C246.769 15.9668 248.024 16.519 248.888 17.623V12.7627H251.047V25.6152ZM346.498 15.9668C348.118 15.9668 349.372 16.3868 350.26 17.2266C351.16 18.0545 351.61 19.2189 351.61 20.7188V21.4746H343.33C343.354 22.3386 343.654 23.0289 344.23 23.5449C344.818 24.0488 345.586 24.3008 346.534 24.3008C347.278 24.3008 347.884 24.1812 348.352 23.9414C348.832 23.6894 349.162 23.3228 349.342 22.8428H351.484C351.22 23.8748 350.674 24.6435 349.846 25.1475C349.03 25.6513 347.919 25.9033 346.516 25.9033C344.872 25.9033 343.576 25.4713 342.628 24.6074C341.692 23.7315 341.224 22.5372 341.224 21.0254C341.224 20.0414 341.434 19.171 341.854 18.415C342.286 17.6471 342.898 17.0472 343.69 16.6152C344.494 16.1833 345.43 15.9668 346.498 15.9668ZM374.702 21.9795C374.702 22.7112 374.882 23.2573 375.242 23.6172C375.614 23.9772 376.179 24.1572 376.935 24.1572C377.834 24.1572 378.632 23.851 379.328 23.2393C379.892 22.7353 380.175 22.1168 380.175 21.3848V16.2549H382.335V25.6152H380.211V24.0674C379.167 25.2914 377.853 25.9033 376.269 25.9033C375.081 25.9033 374.163 25.5972 373.515 24.9854C372.867 24.3734 372.543 23.4972 372.543 22.3574V16.2549H374.702V21.9795ZM286.498 15.9668C288.022 15.9668 289.15 16.2672 289.882 16.8672C290.626 17.4672 290.998 18.3851 290.998 19.6211V25.6152H289V24.2646C288.448 24.8166 287.848 25.2253 287.2 25.4893C286.552 25.7413 285.79 25.8672 284.914 25.8672C283.702 25.8672 282.766 25.6208 282.106 25.1289C281.446 24.6249 281.116 23.9169 281.116 23.0049C281.116 21.9849 281.543 21.2293 282.395 20.7373C283.259 20.2334 284.614 19.9506 286.462 19.8906L288.946 19.8193V19.5127C288.946 18.2409 288.106 17.6055 286.426 17.6055C285.61 17.6055 284.98 17.7072 284.536 17.9111C284.092 18.1031 283.804 18.4027 283.672 18.8105L281.746 18.5947C281.962 17.695 282.454 17.0352 283.222 16.6152C283.99 16.1832 285.082 15.9668 286.498 15.9668ZM322.695 15.9668C324.219 15.9668 325.347 16.2672 326.079 16.8672C326.823 17.4672 327.195 18.3852 327.195 19.6211V25.6152H325.197V24.2646C324.645 24.8166 324.045 25.2253 323.397 25.4893C322.75 25.7412 321.987 25.8672 321.111 25.8672C319.899 25.8672 318.963 25.6209 318.303 25.1289C317.643 24.6249 317.313 23.9168 317.313 23.0049C317.314 21.985 317.739 21.2293 318.591 20.7373C319.455 20.2333 320.811 19.9506 322.659 19.8906L325.143 19.8193V19.5127C325.142 18.2409 324.303 17.6055 322.623 17.6055C321.807 17.6055 321.177 17.7072 320.733 17.9111C320.29 18.1031 320.001 18.4028 319.869 18.8105L317.943 18.5947C318.159 17.695 318.651 17.0352 319.419 16.6152C320.187 16.1832 321.279 15.9668 322.695 15.9668ZM396.194 15.9668C397.718 15.9668 398.846 16.2672 399.578 16.8672C400.322 17.4672 400.694 18.3852 400.694 19.6211V25.6152H398.696V24.2646C398.144 24.8166 397.544 25.2253 396.896 25.4893C396.249 25.7412 395.486 25.8672 394.61 25.8672C393.398 25.8672 392.462 25.6209 391.802 25.1289C391.142 24.6249 390.812 23.9168 390.812 23.0049C390.813 21.9851 391.238 21.2293 392.09 20.7373C392.954 20.2333 394.31 19.9506 396.158 19.8906L398.642 19.8193V19.5127C398.641 18.2409 397.802 17.6055 396.122 17.6055C395.306 17.6055 394.676 17.7072 394.232 17.9111C393.789 18.1031 393.5 18.4028 393.368 18.8105L391.442 18.5947C391.658 17.695 392.15 17.0352 392.918 16.6152C393.686 16.1832 394.778 15.9668 396.194 15.9668ZM277.192 16.2549H280.396V17.8926H277.192V22.6631C277.192 23.1549 277.312 23.5208 277.552 23.7607C277.804 24.0007 278.188 24.1211 278.704 24.1211C279.256 24.1211 279.808 24.0306 280.36 23.8506L280.684 25.4346C279.88 25.6865 279.058 25.8135 278.218 25.8135C277.114 25.8134 276.304 25.5606 275.788 25.0566C275.284 24.5406 275.032 23.7187 275.032 22.5908V17.8926H273.214V16.2549H275.032V13.7354H277.192V16.2549ZM368.061 16.2549H371.265V17.8926H368.061V22.6631C368.061 23.1548 368.18 23.5208 368.42 23.7607C368.672 24.0007 369.056 24.1211 369.572 24.1211C370.124 24.1211 370.677 24.0306 371.229 23.8506L371.553 25.4346C370.749 25.6866 369.926 25.8135 369.086 25.8135C367.982 25.8134 367.172 25.5606 366.656 25.0566C366.152 24.5406 365.9 23.7187 365.9 22.5908V17.8926H364.082V16.2549H365.9V13.7354H368.061V16.2549ZM137.574 12.6191C138.27 12.6192 138.96 12.7088 139.644 12.8887L139.302 14.4365C138.858 14.3286 138.42 14.2754 137.988 14.2754C137.352 14.2754 136.878 14.3893 136.566 14.6172C136.254 14.8332 136.098 15.1811 136.098 15.6611V16.2549H139.176V17.8926H136.098V25.6152H133.938V17.8926H132.12V16.2549H133.938V15.6787C133.939 14.7189 134.256 13.9687 134.892 13.4287C135.54 12.8887 136.434 12.6191 137.574 12.6191ZM154.238 25.6152H152.079V12.7627H154.238V25.6152ZM158.528 25.6152H156.368V12.7627H158.528V25.6152ZM196.352 16.1113C196.64 16.1113 196.975 16.1412 197.359 16.2012L197.107 18.001C196.747 17.941 196.417 17.9111 196.117 17.9111C195.169 17.9112 194.401 18.1808 193.813 18.7207C193.225 19.2487 192.932 19.8672 192.932 20.5752V25.6152H190.771V16.2549H192.896V17.8574C193.34 17.2934 193.855 16.8605 194.443 16.5605C195.043 16.2606 195.68 16.1113 196.352 16.1113ZM202.968 23.5449L206.153 16.2549H208.476L204.083 25.6152H201.779L197.388 16.2549H199.799L202.968 23.5449ZM211.495 25.6152H209.336V16.2549H211.495V25.6152ZM255.339 25.6152H253.179V16.2549H255.339V25.6152ZM272.092 25.6152H269.933V16.2549H272.092V25.6152ZM295.21 25.6152H293.05V12.7627H295.21V25.6152ZM303.459 15.9668C304.719 15.9668 305.673 16.2729 306.321 16.8848C306.981 17.4968 307.312 18.3914 307.312 19.5674V25.6152H305.151V19.9629C305.151 19.1711 304.966 18.6009 304.594 18.2529C304.222 17.8929 303.621 17.7129 302.793 17.7129C302.337 17.7129 301.893 17.7969 301.461 17.9648C301.041 18.1328 300.67 18.3672 300.346 18.667C299.782 19.195 299.499 19.807 299.499 20.5029V25.6152H297.339V16.2549H299.463V17.8027C300.495 16.5788 301.827 15.9669 303.459 15.9668ZM311.523 25.6152H309.363V16.2549H311.523V25.6152ZM359.362 15.9668C360.622 15.9668 361.576 16.273 362.224 16.8848C362.884 17.4968 363.214 18.3914 363.214 19.5674V25.6152H361.054V19.9629C361.054 19.171 360.868 18.6009 360.496 18.2529C360.124 17.893 359.524 17.7129 358.696 17.7129C358.24 17.7129 357.796 17.7969 357.364 17.9648C356.944 18.1328 356.572 18.367 356.248 18.667C355.684 19.195 355.402 19.807 355.402 20.5029V25.6152H353.242V16.2549H355.366V17.8027C356.398 16.5789 357.73 15.9668 359.362 15.9668ZM390.043 16.1113C390.331 16.1113 390.667 16.1412 391.051 16.2012L390.799 18.001C390.439 17.941 390.109 17.9111 389.809 17.9111C388.861 17.9112 388.093 18.1809 387.505 18.7207C386.917 19.2487 386.623 19.8672 386.623 20.5752V25.6152H384.463V16.2549H386.587V17.8574C387.031 17.2934 387.547 16.8605 388.135 16.5605C388.735 16.2606 389.371 16.1113 390.043 16.1113ZM322.695 21.3135C321.567 21.3495 320.751 21.4866 320.247 21.7266C319.755 21.9666 319.509 22.3332 319.509 22.8252C319.509 23.2691 319.701 23.6172 320.085 23.8691C320.469 24.1091 321.003 24.2294 321.687 24.2295C322.203 24.2295 322.695 24.1567 323.163 24.0127C323.643 23.8567 324.057 23.6412 324.405 23.3652C324.897 22.9933 325.143 22.495 325.143 21.8711V21.2412L322.695 21.3135ZM396.194 21.3135C395.066 21.3495 394.25 21.4866 393.746 21.7266C393.254 21.9666 393.008 22.3332 393.008 22.8252C393.008 23.2691 393.2 23.6172 393.584 23.8691C393.968 24.1091 394.503 24.2295 395.187 24.2295C395.702 24.2294 396.194 24.1566 396.662 24.0127C397.142 23.8567 397.556 23.6412 397.904 23.3652C398.396 22.9933 398.642 22.495 398.642 21.8711V21.2412L396.194 21.3135ZM286.498 21.3135C285.37 21.3495 284.554 21.4866 284.05 21.7266C283.558 21.9666 283.312 22.3332 283.312 22.8252C283.313 23.269 283.504 23.6172 283.888 23.8691C284.272 24.1091 284.806 24.2285 285.49 24.2285C286.006 24.2285 286.498 24.1566 286.966 24.0127C287.446 23.8567 287.86 23.6412 288.208 23.3652C288.7 22.9933 288.946 22.495 288.946 21.8711V21.2412L286.498 21.3135ZM245.737 17.6592C244.657 17.6592 243.841 17.9409 243.289 18.5049C242.737 19.0688 242.461 19.8909 242.461 20.9707C242.461 21.9907 242.737 22.7892 243.289 23.3652C243.853 23.9292 244.633 24.2109 245.629 24.2109C246.085 24.2109 246.529 24.1269 246.961 23.959C247.393 23.779 247.76 23.5393 248.06 23.2393C248.336 22.9633 248.545 22.6507 248.689 22.3027C248.833 21.9548 248.905 21.5946 248.905 21.2227V20.6826C248.905 19.843 248.623 19.1233 248.06 18.5234C247.52 17.9474 246.745 17.6592 245.737 17.6592ZM262.473 17.6592C261.441 17.6592 260.637 17.9232 260.061 18.4512C259.497 18.9791 259.215 19.7229 259.215 20.6826C259.215 21.6306 259.484 22.3695 260.024 22.8975C260.576 23.4253 261.357 23.6894 262.364 23.6895C262.856 23.6895 263.312 23.611 263.732 23.4551C264.152 23.2991 264.507 23.0826 264.795 22.8066C265.359 22.2667 265.641 21.6368 265.641 20.917V20.4668C265.641 19.6869 265.352 19.0086 264.776 18.4326C264.26 17.9168 263.492 17.6592 262.473 17.6592ZM334.25 17.6592C333.218 17.6593 332.415 17.9233 331.839 18.4512C331.275 18.9791 330.992 19.7228 330.992 20.6826C330.992 21.6306 331.263 22.3695 331.803 22.8975C332.355 23.4252 333.135 23.6895 334.143 23.6895C334.635 23.6894 335.091 23.6111 335.511 23.4551C335.931 23.2991 336.284 23.0826 336.572 22.8066C337.136 22.2667 337.418 21.637 337.418 20.917V20.4668C337.418 19.6869 337.131 19.0086 336.555 18.4326C336.039 17.9167 335.27 17.6592 334.25 17.6592ZM166.904 21.2949H160.136V19.333H166.904V21.2949ZM184.01 17.5332C183.158 17.5332 182.45 17.7609 181.886 18.2168C181.334 18.6608 181.01 19.2672 180.914 20.0352H187.069C187.045 19.2432 186.764 18.6312 186.224 18.1992C185.696 17.7552 184.958 17.5332 184.01 17.5332ZM229.663 17.5332C228.811 17.5333 228.103 17.7609 227.539 18.2168C226.987 18.6608 226.663 19.2672 226.567 20.0352H232.724C232.7 19.2433 232.418 18.6312 231.878 18.1992C231.35 17.7552 230.611 17.5332 229.663 17.5332ZM346.48 17.5332C345.629 17.5332 344.92 17.761 344.356 18.2168C343.804 18.6608 343.48 19.2672 343.384 20.0352H349.54C349.516 19.2433 349.234 18.6312 348.694 18.1992C348.166 17.7553 347.428 17.5333 346.48 17.5332ZM286.984 15.0127H284.914L287.524 12.2949H290.08L286.984 15.0127ZM310.947 15.0127H308.878L311.487 12.2949H314.044L310.947 15.0127ZM211.531 14.8691H209.3V12.7627H211.531V14.8691ZM255.375 14.8691H253.143V12.7627H255.375V14.8691ZM272.128 14.8691H269.896V12.7627H272.128V14.8691Z" fill="#191A1B"/>
</svg>
